/* XPM */
static char *_7301c79597843f9bf3f92bd6d32288fnljzl7jrpG1ZkA5e[] = {
/* columns rows colors chars-per-pixel */
"64 64 78 1 ",
"  c #EAA33F",
". c #DFA752",
"X c #DEA955",
"o c #DCAA5B",
"O c #E6A545",
"+ c #EBA541",
"@ c #E3A64B",
"# c #E8A749",
"$ c #E6A84C",
"% c #E8A84A",
"& c #E1A750",
"* c #E5AB53",
"= c #E8AD53",
"- c #E6AF5A",
"; c #E8AF58",
": c #E7B15D",
"> c #E9B159",
", c #D7AC65",
"< c #DAAC63",
"1 c #D7AE6B",
"2 c #D9AE6A",
"3 c #D6AF71",
"4 c #D5B174",
"5 c #D3B27C",
"6 c #E5B362",
"7 c #E9B564",
"8 c #E4B66C",
"9 c #EAB76B",
"0 c #EAB86C",
"q c #E6BB74",
"w c #EABE72",
"e c #E5BF7B",
"r c #E8BF7B",
"t c #ECC177",
"y c #EBC27A",
"u c #BFBEBD",
"i c #CFB486",
"p c #CFB68C",
"a c #D1B483",
"s c #D0B589",
"d c #CDB793",
"f c #CDB895",
"g c #CBB99B",
"h c #C7BCA6",
"j c #C9BBA4",
"k c #C6BCAC",
"l c #C8BDAA",
"z c #C4BEB4",
"x c #C1BEBC",
"c c #EAC584",
"v c #EDCA8B",
"b c #EECC92",
"n c #EFD197",
"m c #EFD49A",
"M c #F1D294",
"N c #F1D39E",
"B c #EFD9A4",
"V c #F1D9A5",
"C c #F3DBAA",
"Z c #F4DEB3",
"A c #F3DFB8",
"S c #F4E1B4",
"D c #F5E4BB",
"F c #F5E5C2",
"G c #F7E9C3",
"H c #F9ECC7",
"J c #F7ECCA",
"K c #F8ECCC",
"L c #F7EDD0",
"P c #F9EED3",
"I c #FAF1D5",
"U c #FAF2DB",
"Y c #FCF5E1",
"T c #FDF9E5",
"R c #FCF7E8",
"E c #FDFAEB",
"W c #FEFDF5",
"Q c #FFFFFA",
/* pixels */
"xxxxxxxxuxxxxxxxxxxxxxxxuxuxxxxxxxxxxxxxxxxxxxxxxxxxxxxxxxxxxxxx",
"xxxxxxxxxxxxxxxxxxxxxxxxxxxxxxxxxxxxxxxxxxxxxxxxxxxxxxxxxxxxxxxx",
"xxxxxxxxuxxxxxxxxxxxxxxxxxxxxxxxxxxxxxxxxxxxxxxxxuxxxxxxxxxxxxxx",
"xxxxxxuxxxxxxxxxxxxxxxxxxxxxxxxxxxxxzxxxxxxxxxxxuxxxxxxxxxxxxxxx",
"xxxxxxxxxxxxuxxxxxxxxxxxxxxxxxxxxxxuxxxxxxxxxxxxxxxxxxxxxxxxxxxx",
"xxxxxxxxxxuxxxxxxxxxxxxxxxxxzkkzkzzzzzxxxxxxxxxxuuxxxxxxxxxxxxxx",
"xxxxxxxxxxxxxxxxxxxxxxxxzkgi32<<<<<14agjzxxxxxxxxxxxxxxxxxxxxxxx",
"xxxxxxxxxxxxxxxxxxxxxzkd3o.@OO     OO@&<3pkkxxxxxxxxxxxxxxxxxxxx",
"xxxxxxxxxxxxxxxxxxxzla<&+++++++++ + +++++$<alzxxxxxxxxxxxxxxxxxx",
"xxxxxxxxxxxxxxxxxxls<@+++++++++#  +++++++++#<skxxxxxxxxxxxxxxxxx",
"xxxxxxxxxxxxxxxxzj3&O+++++++++++++++++++++ ++&2gzxxxxxxxxxxxxxxx",
"xxxxxxxxxxxxxxxxd-#++++++++++++++++++++++++++ O-skxxxxxxxxxxxxxx",
"xxxxxxxxuxxxxxzs=+++++++++++++++++++++++#++++ ++.akxxxxxxxxxxxxx",
"xxxxxxxxxxxxxza$++++++++++++++++++++++++++++++++ &akxxxxxxxxxxxx",
"xxxxxxxxxxxxza&+++++++++++++++  +++++++++++++++++ #akxxxxxxxxxxx",
"xuxxxxxxxxxzs&++++++++++++++    +++++++++++++++++  @axxxxxxxxxxx",
"xxxxxxxxxuxfo +++++++            + +   O    ++++++++odxxxxxxxxux",
"xxxxxxxxxuh2O++++++++=7t9999999999009990000=++ ++++++2jxxxuxxxxx",
"xxxxxxxxuz5@ +++++++ tHTYYYYYYYYYUUYYYYYUTIy+++++++++#azxxxxxxxx",
"xxxxxxxxugo+++++++++ yTQWQQQQQWQQQQQQWWQWQEc++++++++  .gxxxxxxxx",
"xxxxxxxxz5O++++++++++tTQRCBNNBBMNBNNmBNNNBM6++++++++++#4kzuxxxxx",
"xxxxxxxxgo  ++++++++OtEQP7 O+++#+#+++++O++++++++++++++ ogxxuxxxx",
"xxxxxxxzaO++++++++  OyEQP;  +O  + O+    ++++ ++++++++++#auxxxxxx",
"xxxxxxxl8+++++++++ OOyEQP- O+ OO O  O   O+++++++++++++++<jxxzxxx",
"xxxxxxzd.+++++++++++OtEQUe6666666:666666666;+ +++++++++ @dxxxxxx",
"xxxxxxxiO++++++++++++yEQWUIUPPPIIPIPIIIIIIIm% ++++++++++Oixxxxxx",
"xxxxxxz4++++++++++++OyTQWQQQQQQQQQQQQQQQQWWS% +++++++++ O3kxxxxx",
"xxxxxxl,+++++++++++++:MVVVBBBBAEQQFBVBBBVVVy# ++++++++++ ,huxxxx",
"xxxxxxjo++++++++++++++O@@@O@@O8UQEc@O@@@#@OO++++++++++++O.jxxxxx",
"xxxxxxg&++++++++++ +++  +  OO 7UQEr      +  +  +++++++#+ &fxxxxx",
"xxxxxxf*+++++++++%==>>;;>;;;;;eUQWb-;;;;;;>;>>;%++++++++ @dxxxxx",
"xxxxxxf$+++++++++wHIIPPPPPPPLLUWQQYPLILIPPPPPPHr+++++++  @pxxxxx",
"xxxxxxg@+++++++++yTQQQQQQQQQQQQQQWWQQQQQQQQQWQEv ++++++++%dxxxxx",
"xxxxxxf@+++++++++7VZZZZZZZZZZZZZZZZZZZZZZZZZZZC0+ +++++++%gxxxxx",
"xxxxxxgX++++++++++%%$$%%$$#%@#@#@@@##$#@####%$$++++++++++&gxuuxx",
"xxxxxxjo+++++++++++   ++++O$;7909997;$O+  + ++  ++ ++++++-gxuuxx",
"xxxxxxl2++++++++++++  ++;wnZHUUTTTYIKDmy-OO +++++O++ ++++2lxxxxx",
"xxxxxxz5++++++++++++O+$cDTWWWWETTTEWQQWTFv*O+++++ +++++++4zxuxxx",
"xxxxxxxs%++++++++++++*mRWWYGCbcrercvVFYWQEC;++++++++++++#ixxxxxx",
"xxxxxxxg:+++++++++++@vRQWFr-+O++ OOO#-eDWQEbO+++++++++++Xgxxxxxx",
"xxxxxxxk1O  ++++++++=DQQL8O  O+   +++ O6KQQK;++++++++   1kxxxxxx",
"xxxxxxxxs@ +++ +++++>IQQF@    + + +++++#AQQU; ++++ ++  Oaxxxuxxu",
"xxxxxxxxl<O+++ +++++=DQQUq@+ ++O++ ++ +8PQQF=++++++++# <jxxxxxxx",
"xxxxxxxxza@++ +++++++cRQWPv6=++O++++&6vJWQRvO++++ ++++Oazxxxuuuz",
"xxxxxxxxxj<++++++++++$bUWQWPDCNMbnNVAPEQQYn=O+++++++OO<jxxxxxxxx",
"xxxxxxxxxxs&++++++++++@yCUWWQQWWWWQQQQWYZe@ ++++++++ @izxxxxxxxx",
"xxxxxxxxxxk4%+++++++++++*9vVDJIUUUPKDCv9*O++ +++++++O3kxxxxxxxxu",
"xxxxxxxxxxxj,++++++++++++ +@*:>0977-*@++ ++ ++++++++<guxuxxxxxux",
"xxxxxxxxxxzxfo++++++++++++++++    +++++++++++++++++odzxxxxxxxxxx",
"xxxxxxxxxxxxzfo+++++++++++++++++++++++++++++++++++*dzxuxxxxxxxxx",
"xxxxxxxxxxxxxzpo++++++++++++++++++++++++++++++++OXdzxxxxxxxxxuxx",
"xxxxxxxxxxxxxxzf<+ ++++++++++++++++++++++++++++Oopzxxxxxxxxxxxxx",
"xxxxxxxxxxxxxxxxg1@O +  ++++++++++++++++++++  @2gxuxxxxxxxxxxxxx",
"xxxxxxxxxxxxxxxxxhaX++ O++++++++++++++++++++O-akxxxxxxxxxxxxxuxx",
"xxxzxxxxxxxxxxxxxxzg3o#O+  ++++++++++++ + #&3gzxxxxxxxxxxxxxxxxx",
"xxxxxxxxxxxxxxxxxxxxzg5-$#+ +++++++++O O@o3gkxxxxxxxxxxxxxxxxxxx",
"xxxxxxxxxxxxxxxxxxxxuxxls4o.@#O#++%%$*<3dlzxxxxxxxxxxxxxxxxxxxxx",
"xxxxxxxxxxxxxxxxxxuxxxuxzzkgpa444445pglzxxxxxxxxxxxxxxxxxxxxxxxx",
"xxxxxxxxxxxxxxxxxxxxxxxxxxuxzxxzzzzzzxxxxxxxxxxxxxxxxxxxxxxxxxxx",
"xxxxxxxxxxxxxxxxxxxxxxxxxxxxuxxxxxxxxxxxxxxxxxxxxxxxxxxxxxxxxxxx",
"xxxxxxxxxxxxxxxxxxxxxxxxxxxxxxxxxxxxxxxxxxxxxxxxxxxxxxxxxxxxxxxx",
"xxxxxxxxxxxxxxxxxxxxxxxxxxxxxxxxxxxxxxxxxxxxxxxxxxxxxxxxxxxxxxxx",
"xxxxxxxxxxxxxxxxxxxxxxxxxxxxxxxxxxxxxxxxxxxxxxxxxxxxxxxxxxxxxxxx",
"xxxxxxxxxxxxxxxxxxxxxxxxxxxxxxxxxxxxxxxxxxxxxxxxxxxxxxxxxxxxxxxx"
};
