/* XPM */
static char *fd2afa972b6d4fe6a1d178bafe4e54aagluXE8HrakxGtNpT[] = {
/* columns rows colors chars-per-pixel */
"64 64 85 1 ",
"  c #AF4E53",
". c #B14E53",
"X c #AE5155",
"o c #AD5659",
"O c #AC5A5D",
"+ c #B35055",
"@ c #B1555A",
"# c #B1585C",
"$ c #AD5D61",
"% c #B35E61",
"& c #AD6164",
"* c #AE6769",
"= c #AE6A6D",
"- c #B46166",
"; c #B3656A",
": c #B8666A",
"> c #B6696E",
", c #B96B6F",
"< c #B36E71",
"1 c #BA6F73",
"2 c #B27275",
"3 c #BA7174",
"4 c #B3777A",
"5 c #BD7679",
"6 c #B47B7D",
"7 c #BC7A7D",
"8 c #B57E81",
"9 c #BE7E82",
"0 c #C07E82",
"q c #B68384",
"w c #B98586",
"e c #B88689",
"r c #B7898A",
"t c #B98C8D",
"y c #BC9394",
"u c #BE9B9C",
"i c #BFA2A2",
"p c #BFBEBB",
"a c #C38386",
"s c #C8878B",
"d c #C3888C",
"f c #C98D90",
"g c #CB9396",
"h c #C09D9E",
"j c #D09497",
"k c #C0A09F",
"l c #CF9EA2",
"z c #C1A3A3",
"x c #CFA2A4",
"c c #C0A8A7",
"v c #C0A7A8",
"b c #C3ACAB",
"n c #D0A2A5",
"m c #C3B1AF",
"M c #DAAFB1",
"N c #C4B4B3",
"B c #C5B8B6",
"V c #C1BEBC",
"C c #DBB6B7",
"Z c #DCB5B8",
"A c #E1B7B9",
"S c #C1C0BD",
"D c #DFBFC2",
"F c #E0BDC0",
"G c #DFC0C2",
"H c #DEC7C8",
"J c #E1C2C3",
"K c #E8C5C7",
"L c #E4C9CA",
"P c #EAD4D5",
"I c #EAD7D9",
"U c #EDDBDC",
"Y c #F3DCDD",
"T c #EFDEE0",
"R c #EEE1E1",
"E c #F4E7E8",
"W c #F6E9EA",
"Q c #F9ECED",
"! c #F8F0EF",
"~ c #F9EFF0",
"^ c #F6F0F0",
"/ c #FAF2F3",
"( c #FCF8F7",
") c #FDF7F8",
"_ c #FFFEFE",
/* pixels */
"VVVVVVVSSVVVVVVVVVVVSVSVVVVVVVVVVVVVVVVVVVVVVVVVVVVVVVVVVVVVVVVV",
"VVVVVVVSVVVVVVVVVVVVVVpSVVVVVVVVVVVVVVVVVVVVVVVVVVVVVVVVVVVVVVVV",
"VVVVSVVVVVVVVVVVVVVVVVSpppVDVVVVVVVVVVVVVVppVVVVVVVVVVVpVVVVVVVV",
"VVVVVVVVVVVVVVVVVVVVVVVBppppVVVVVVVVVVVVVVVpVVVVVVVVVVVVVSVVVVVV",
"VVVVVDVVVVVVVVVVVVVVVVVSpppDppVVpDVVVpppDpppppVVVVVVSVVVVVVVVVVV",
"VVVVppSSVVVVVVVVVVVVVVpSVVmpiiihivmNBDpppppppDVVVVVVVVVVVVVVVVVV",
"VVVVppppVVVVVVVVVVSBSVBmie4=*$$$O$$=8ripVVVpppVVSSVVVVVVVVVVVVSV",
"VVVVppppVVVVVVVVVVSVNkq*$  XXX  XX   Xo&eipVVpVVVVVVVVVVpVVVVVVV",
"VVVVVVVVVVVVVVVVSSBh2O++++++++++ ++++++.+$8kBVVVVVVVVVVVVVVVVVVV",
"VVVVVVVVSVVVVVVVBc6oX+++++++++++ X++++++++ $qbVVVVVVVVVVVVVpSVVV",
"VVVVVVVVSVVVSSVVd&++++++++++++++++++++++++..X*yBVVVVVVVVVVVVVVVV",
"VVVVVVVVSVSVVSi8@...+++++++++++++++++++++++++XOwDVVVVVVVVVVpVVVV",
"VVVVVVVVVpppVv2 ++.+++++++++++.++++++++++++++++o8ippVVVVVVVVVVVV",
"VVVVVVVVVpppm8X ++.++++++++++++++++++++..+++++++X8ppVVVVVVVpVVVV",
"VVVVVVVVVVDv8  +++++++++++++++++++++++++++++++++ X8ipVVVVVVVVVSV",
"VVVVVVVVVVp8 .++++++.++++++++++++++++++X+.++++++XX$epVVVVVVpVVVV",
"VVVVVVVVpp8O X++++++%1,:@++++++++++++.@:,,%.++++++ $uVVVVVVVVVVV",
"VVVVVVVVDh*X  +++++ 0YYF%.+++++++++++ :JTP0.+++++++ 2iVVVVVVVVVV",
"VVVVVVVVN8 +++++++++g))P&+.+++++.+..+.;U_~d.++++++++X8NpVVVVVVVV",
"VVVVVVVVuO+.+++++++ g)_P*o@o@o@o@@@o@o=U_/d+++++++++X$ipVVVVVVVV",
"VVVVVVVN8 ..+++++++.g)_QHDDGGGDFFGGGGGH^_/d +++++++++X8DVVVVVVVV",
"VVVVVVVuO+..+++++++.g)___________________/d.++++++++++&vVVpVVVVV",
"VVVVVSV8@+++++++++..g)_/UUUUUUUUUUUUUIT)_/d.++++++++++XeVVVVVVVV",
"VVVSVSi&++++++++++..g)_I2-%-----%--%--4U_/d +++++++++++<ppVVVVVV",
"VVVVpVuOX++++++++++.g)_P$.............*I_~d ++++++++++ $uVVVVVVV",
"VVVVpp8o  +++++++++.g)_U6>>;>1;><,>>>:qU_/d.+++++++++++otVVVVVVV",
"VVVVSD8 +++++++++++.g)_)RUTTUTTTYUTUTUR(_/0.+++++++++++ 8VVVVVVV",
"VVVVSi$++++++++++++.g)__________________))d ++++++++++++<NVVVVVV",
"VVVVVi$++++++++++++ 0FJJJJJJJJJJJJJJJJJJDD9.++++++++++++=NVVVVVV",
"VVVVVv$ +++++++++++++#################@###..++++++++++++&iVVVVVV",
"SVVVVh$ ++++++++X  +  X...     X       X    ..+.+++++++ $vVVVVVV",
"VVVVVhOX++++++++1lnnxnnnnnxnnlnlxnnnnnxxnnnnnl1++++++++ $vVVVVVV",
"VSppVuO+++++++++g)___________________________)s++++++++.$bpppppp",
"VSSBViO++++++++.fW^Q/~/Q~~~~Q^___/~W~^~~QQ!!QWa.++++++++$bDVppVp",
"VVVpVc&.++++++++-07a000000999l/_Wl8900900009a7%.+++++++.;pBVVVVV",
"VVVSSm*.++++++++...........  7W_E3 .....  ......+++++++ <BppVppV",
"VVVppB2.++.+++++++++@+@@+o+oX9~_E7X@+X@+@@+++++++++++++X8DVVVVVV",
"VVVVSBwX++++++++.++@jCCCCCCCZL)_/JCCCCCZZM3.+++++++++++XrVVVVVVV",
"VVVVVVho+++++++++++OK_______))))_________/s.++.+++++++.%ipVVVVVV",
"VVVVVSb-+++++++++++@AWEWEWWWEEEYEEEEEWW(_/d.+++++++.+++<ppVVVVVV",
"VVppppV8X+++++++++++:33188-9-99:331311wT_/d+++++++++++o8VppVVVVp",
"VVpDppVuO+++++++++++++  ............  ;I_!dX++++++++++$vVppVVVVV",
"VVVVDpVp2+++++++++++++++++++....++++++;I_/d +++++++++X8VVVVVVVVp",
"VVVVppppyO.+++++++++.+++++++....+++++X;U_!d ++++++++ $hVVVVVVVVV",
"VVVVppppN5X++++++++++++++++@++++++++++;U_/d.++++++++O8VVVVVVVVVV",
"VVVVppVVVz&X+++++++++++++++++++++++++.:LQYa.+++++++.=iVVVVVVVVVV",
"VVVVVVVVVVtO+++++++++++++++++++++++++X@,53#++++++++$tpVVVVVVVVVV",
"VVVVVVVVVVB6X++++++++++++++++++++++++++ + @+++++++o8DVVVVVVVVVVV",
"VVVVVVVVVVVi8 X +++++++++++++++++++++++++++++++ +X8NVVVVVVVVVVVV",
"VVVVVVVpppVVi8X++++++++++++++X+++++++++++++++++ o8bVVVVVVVSVVVVV",
"VVVVVVVVVVVVDb8X++..++++++++++++++++++++++++++ o8pDpVVVVVVVVVSVV",
"VVVVVVVVVVVVpVi8o++.++++++++++.+++++++++++++++O8ipppVVVVVVVVVVSS",
"VVpVVVVVVVVVpppV8*X +X  +++.++++++++++++++++X&yVVVVVVVVVVVVVVVVV",
"VVVVVVVVVVVVppVpVv8O..X ++++++++++++++++++ $8vVVVVVVVVVVVVVVVVVV",
"VVVVVVVVVVVVVVVVVVNy8oXXX++++++++++++++X $8uVpVVVVVVVVVVVVVVVVVV",
"VVVVVVVVVVVVVVVVVVppFu8*oX++++++++++. $=8zNVVVVVVVVVVVVVVVVVVVVV",
"VVVVVVVVVVVVVVVVVVVVVVVvu88&$$OO$$$=88ipVpVpVVVVVVVVVVVVVVVVVVVV",
"VVVVVVVVVVVVVVVVVVVVVVVVpDmpviiuilvpNDppVpVVVVVVVVVVVVVVVVSSVVVV",
"VVVVVVVVVVVVVVVVVVVppVVVppVVVVVVVSVVVppppVVpVVVVVVVVVVVVVVVSVVVV",
"VVVVVVVVVVVVVVVVVVVVVVVVVVVVVVVVVVVVVVVVVpVVpVVVVVVVVVVVVVVVVVVV",
"VVVVVVVVVVVVVVVVVVVVpppVVVVVVVVVVVVVVVpVVVVVVVVVVVVVVVVVVVVVVVVV",
"VVVVVVVVVVVVVVVVpVVVppVVVVVVVVVVVVVVVVVVVVVVVVVVVVVVVVVVVVVVVVVV",
"VVVVVpVpVVVVVVVVVVpVVVVVVVVVVVVVVVpVVVpVVVVVVVVVVVVVVVVVVVVVVVVV",
"VVVVVVVVVVVVVVVVVVVVVVVVVVVVVVVVVVVVVVVVVVVVVVVVVVVVVVVVVVVVVVVV"
};
