/* XPM */
static char *c623069cb7c84444e17e52d31eb6a406CkBbi3PdnVcuVrk9[] = {
/* columns rows colors chars-per-pixel */
"64 64 108 2 ",
"   c #4E668F",
".  c #4F688F",
"X  c #50678E",
"o  c #52698E",
"O  c #586D8E",
"+  c #4E6791",
"@  c #4F6892",
"#  c #506791",
"$  c #536B92",
"%  c #596E92",
"&  c #5D7193",
"*  c #5D7499",
"=  c #637594",
"-  c #667996",
";  c #697A96",
":  c #627799",
">  c #64799B",
",  c #6C7E9B",
"<  c #6E819F",
"1  c #73839B",
"2  c #79879F",
"3  c #7C8A9F",
"4  c #6E82A2",
"5  c #7386A4",
"6  c #7789A6",
"7  c #7D8BA2",
"8  c #778AA9",
"9  c #7A8CA9",
"0  c #7E90AC",
"q  c #808DA2",
"w  c #8591A5",
"e  c #8A95A7",
"r  c #8292AC",
"t  c #8B96A9",
"y  c #8E98AB",
"u  c #939CAC",
"i  c #8496B2",
"p  c #8E9DB5",
"a  c #8F9FB8",
"s  c #919FB4",
"d  c #99A2AF",
"f  c #9DA4B2",
"g  c #99A8BE",
"h  c #A0A7B3",
"j  c #A4ABB5",
"k  c #A9AEB7",
"l  c #A7ADB8",
"z  c #AAAFB9",
"x  c #ADB2BA",
"c  c #B2B6BC",
"v  c #B6B9BE",
"b  c #B9BBBD",
"n  c #BBBBBF",
"m  c #BBBCBE",
"M  c gray74",
"N  c #BEBDBF",
"B  c #C1BDBB",
"V  c #C0BEBA",
"C  c #C1BEBB",
"Z  c #C2BFBB",
"A  c #C1BDBD",
"S  c #C2BDBC",
"D  c #C1BEBC",
"F  c #C2C0BD",
"G  c #9FAEC3",
"H  c #A2AEC2",
"J  c #A4B2C9",
"K  c #A8B5C9",
"L  c #AAB7C8",
"P  c #BCBDC0",
"I  c #B1BCCF",
"U  c #B3BFCE",
"Y  c #AFBBD0",
"T  c #C1BFC0",
"R  c #B3C0D4",
"E  c #B8C3D4",
"W  c #BEC9D6",
"Q  c #BDC9DA",
"!  c #C4CDD8",
"~  c #C5CFDC",
"^  c #C6D0DC",
"/  c #C8D2DE",
"(  c #CAD5E1",
")  c #D9E1E6",
"_  c #DCE3EB",
"`  c #DCE4ED",
"'  c #DEE6EE",
"]  c #E0E6EB",
"[  c #E5E9EE",
"{  c #E5EBF0",
"}  c #E7EDF2",
"|  c #E6EEF3",
" . c #E7EDF4",
".. c #E8EDF2",
"X. c #E8EFF4",
"o. c #EBEFF4",
"O. c #ECEFF4",
"+. c #EBF0F3",
"@. c #EBF0F5",
"#. c #ECF0F5",
"$. c #EFF4F8",
"%. c #F0F6F7",
"&. c #F2F6F9",
"*. c #F6F8F9",
"=. c #F5F9FB",
"-. c #FCFDFD",
";. c #FDFFFF",
":. c #FEFEFE",
/* pixels */
"D D D D D D D D D D D D D D D T V V V B B B D D T D D T T D D D D D T A D D D D S F S F m F D T D D D D D D D D D D D D A D D D ",
"D D D D D D D D D D D D D D D D B ! B B B B D D D D D D D D D D S T A T D D D D F m S V D F D D D D D D D A D D D D D D A D D D ",
"D D D D D D D D D D D D D D D D F B B B V B B F D D D D D D D D D D D D D D D D V F S M D T D T T D D D D T D D D D D D A D D D ",
"D D D D T D D D D D T D D D T D B B B B B B B B D S T T D D D D D D D D D D D D S S F F D D D D D D D D D D D D T A D D D D D D ",
"D D D D D D D D D D A A D D T D F E V B S F F S D D D D D D S T S S B B D D D D M S F V D V S F D D T D D D D D D A D D D D D D ",
"D D D D D D D D T D D T D D D D V S B V S M S S D D D D T T S S m S B A D D D S F V S S S F M S A T D D D D T D D T D D D D D D ",
"D D D D D D D D A D D T A T D D S F S T F M S S D T P c x z j h j j l c n T D D S S M F F S V S D D D D D D D D D T T A D D D D ",
"D D D D D D D D D D D D D D D A M F V S F S S c f t 1 - & % % $ % % - - 1 q f c m F S V S T F M A A D D D D D D D A D D D D D D ",
"F S V M M M F M D D D D T D A A D S D D P j 7 > $ + @ + + @ @ @ $ +       o o : q f n m n S S S D D D D D A D D D D D D D D D D ",
"S V V F F S S S D D D D A D S A D D P h 2 % $ @ @ @ @ @ @ @ @ @ @ @ # + @ @ @   X O 1 d n S M V D D D D D T D D D D D D D D D D ",
"V S S S S S F S D D D D S S D D D z 7 % # + # @ @ @ @ @ @ @ @ @ @ @ @ @ @ @ @ @ + +   o 2 j D m D D D D D D T D D D T D D D D D ",
"S F F S V M F M T A D A S S S n u = o @ # # @ @ @ @ @ @ @ @ @ @ @ @ @ @ @ @ @ @ @ $   o + - t n T D A T D D D D D D A D D D D D ",
"S V S S S V S S S F F V S M c w o   @ @ @ @ @ @ @ @ @ @ @ @ @ @ @ @ @ @ @ @ @ @ @ @ @ @ @ + o 3 x D D D D T D D D D D D D D D D ",
"F M S F M M S F S S M S F c 7 $ @ @ # @ @ @ @ @ @ @ @ @ @ @ @ @ @ @ @ @ @ @ @ @ @ @ @ @ . . @   , x T D D D D D T D D D D D D D ",
"F S S F F S F F V T F S c 2 o @ @ @ @ @ @ @ @ @ @ @ @ @ @ @ @ @ @ @ @ @ @ @ @ @ @ @ @ @ @ @ @ @ o , x D D D D T D D D D D D D D ",
"S V V M S S M S M F S v 2 o @ @ @ @ @ @ @ @ @ @ @ @ @ @ @ @ @ @ @ @ @ @ @ @ @ @ @ @ @ @ @ @ @ @ + # , c D D D D D D D D D D D D ",
"V S M S M S F M D D D w o # @ @ @ @ @ @ @ + + @ @ @ @ @ @ @ @ @ @ @ @ @ @ @ @ .   @ @ @ @ @ $ @ # + + 7 n S S S S F V F F F S S ",
"S V F S F S S M D m f $   $ @ @ @ @ @ + +     + @ @ @ @ @ @ @ @ @ @ @ @ @ @ : g H g : @ @ @ @ @ $ + + o t m M S S M S S M S F V ",
"S M S S D F S V F c - + + @ @ @ @ @ & 9 0 9 % + @ @ @ @ @ @ @ @ @ @ @ @ @   5 } ;...8   @ @ @ @ @ @ @ @ & l D A F V F F T V M S ",
"S S V S D S M F m 7 o + @ @ @ @ @   5 ' &.' 4 + @ @ @ @ @ @ @ @ @ @ @ @ .   5 +.;.#.5 @ @ @ @ @ @ @ @ @   2 n B S S M S F S S F ",
"B B V V m S M S l & @ $ @ @ @ # @   6 O.;...5 $ @ @ @ @ @ @ @ @ @ @ @ @ @   6 ..;.#.8 @ @ @ @ @ @ @ @ @ + $ f A V V F S M S S V ",
"B V b V S D D m 7 @ + + @ @ @ @ @ o 6 ..;...5   @ @ @ @ @ @ @ @ @ @ @ @     5 ..;.#.8   @ @ @ @ @ @ @ @ # @ , v V E D M S F M F ",
"B B D ! D D D k & @ @ # @ @ @ # @   6 o.;. .4 + @ @ @ @ @ @ @ @ @ @ @ @ @   6 ..;.O.8 # . @ @ @ @ @ @ @ @ @ $ f V V V F F S S F ",
"B B D D D F m t @ @ @ @ @ @ @ @ @   6 o.;.{ 5   @ @ @ @ @ @ @ @ @ @ @ @     6 ..;.O.9 X . o o @ @ @ @ # @ @ # 7 S B T S S M S F ",
"B B S S D D P , # @ @ @ @ @ @ @ @   5 O.;...5   @ @ @ @ @ @ @ @ @ @ @ @ @   5 @.;.*.! I R R i   @ @ # # + +   = c S D T D T A D ",
"B B S S D D j % # @ @ @ @ @ @ @ @   5 O.;...5   @ @ @ @ @ @ @ @ @ @ @ @ @   5 } ;.;.;.;.-.-.L @ @ @ @ @ @ $ + o h S D D D D D D ",
"B B S D D D u o @ @ @ @ @ @ @ @ #   6 O.;...5   @   @ @ @ @ # @ @ @ @ @ @   5  .;.;.@.o.+.} G @ @ @ @ @ @ @ @ + q D D D T D D D ",
"B V ! D D P 7   @ @ @ @ @ @ @ @ @ @ 5 o.;.} 4   @ @ @ @   @   o         @   5 @.;.#.s , 1 1 : @ @ @ @ @ @ @ @ @ 1 n D D A D D D ",
"V B D T D P 1   @ @ @ @ @ @ @ @ @   6 @.;...7 = & : - ; < 5 6 9 r i a g i o 5 o.;.#.6   + + @ @ @ @ @ @ @ @ @ + - c D D T D D D ",
"B B D D D c -   @ @ @ @ @ @ @ @ @   6 o.;.*._ ) ) _ _ ] ] [ O.O.$.&.=.;.Q o 5  .;.o.8   + @ @ @ # @ @ @ @ @ @ @ % k D T A D D D ",
"B B B D D x : + @ @ @ @ @ @ @ @ @   5 #.;.;.;.;.;.;.;.;.;.;.;.;.;.;.*.$.R o 5 o.;.o.6 + @ @ @ @ @ @ @ @ # @ # # % j D D D D D D ",
"B B B B D k & $ @ @ @ @ @ @ @ @ @   4 Q ( ( ( / ~ ~ ! W W E I K G g p r , . 5 @.;.o.8 + @ @ @ @ @ @ @ @ $ + # # $ h D D D D D D ",
"F S S S S k %   @ @ @ @ @ @ @ @ @ @ @ % & % % % % $ % $ $ $ $ # @           5  .;.#.8 @ @ @ @ @ @ @ @ @ @ @ @ @ $ f S F M S S V ",
"S M F F S k = X @ @ @ @ @ @ @ @ @ @ @ + @ @ @ + + @ @ @ + $ + # @ @ @ @ +   4 ( _ ( 4 @ @ @ @ @ @ @ @ @ @ @ @ @ % f S D S F M F ",
"S V S M S c = X @ @ @ @ @ # # @ @ @ @ @ @ @ $ $ $ $ $ $ # $ $ # @ $ $ $ . o $ : - : $ @ @ @ @ @ @ # @ @ @ @ @ @ % j S D F m S F ",
"M F F S S c - X @ @ @ @ @ @ @ @ @ @ @ @ + * J E E E E E E E E E E E E R E E E E E Y , @ @ @ @ @ @ @ @ @ @ @ @ @ % z F D D F V S ",
"S S S S S b , X @ @ @ @ @ @ @ @ @ @ @ @ + > ' ;.;.;.;.;.;.;.;.;.;.;.;.;.;.;.;.;.;.&.9   # @ @ @ @ @ @ @ @ @ @ @ = c D B D D D D ",
"F S V T S m q X @ @ @ @ @ @ @ @ @ @ @ @ + > ` ;.;.#.{ {  . .{ { [ { { [ } [ o.-.;.#.r @ @ @ @ @ @ @ @ @ @ @ @ # 1 n S B D D D D ",
"S S F M D ! s # @ @ @ @ @ @ @ @ @ @ @ @ @ > _ ;.*.H 1 4 , 4 , , 4 4 4 4 4 , y #.;.&.9 @ # @ @ @ @ @ @ @ @ @ @ # w D B B V ! D D ",
"V S S F D D j & @ @ @ @ @ @ @ @ @ @ @ @ @ : _ ;.*.p   @ @ @ @ + @ @ + + +   5 o.;.$.0 @ # @ @ @ @ @ # @ @ @ @ $ f D B V V D D D ",
"F S D D T D n , . @ @ @ @ @ @ @ @ @ @ @ @ > ` ;.=.p + $ + + @ @ @ @ @ @ #   5 o.;.%.9 # @ @ @ @ @ # @ @ # #   : c D D T D D D D ",
"F M D D D D T t o @ @ @ @ @ @ @ @ @ @ @ @ > _ ;.=.p + + @ @ + +   @ @   #   5 o.;.%.9 @ @ @ @ @ @ @ @ @ $   o q P D D D D D D D ",
"D D D D S S D z & @ @ @ @ @ @ @ @ @ @ @ @ > _ ;.*.p   # + + + + @ @   + # @ 5 O.;.%.r @ @ @ @ @ @ @ @ @ + @ % f D D D D D D D D ",
"D D D D S S D P 7 . @ @ @ @ @ @ @ @ @ @ @ : _ ;.*.g : > > : > > : > : : : : r @.;.&.9   @ @ @ @ @ @ @ + + + 1 P D D P D D D T T ",
"S S M F S S S F z & $ + @ @ @ # @ @ @ @ @ > ' ;.;.{ _ _ _ _ _ _ _ ' _ _ _ _ [ *.;.%.9 # # # @ @ @ @ @ # # % f D A T D D D D D T ",
"V F S V S S M F P w o + @ @ @ @ @ @ @ @ @ : _ ;.;.;.;.;.;.;.;.;.;.;.;.;.;.;.;.;.;.&.9 + @ @ @ @ @ @ @ @ # 2 c S D D D D D D D A ",
"F M S S F V S F P x ; @ @ @ @ @ @ @ @ @ @ * Y ! / ~ ~ / ~ ~ / ! ^ ~ ~ / ~ / ~ / ! Q 5 + @ @ @ @ @ @ @ @ & z T D D D T A D D D D ",
"S m F S M S F S D T f & @ @ @ @ @ @ @ @ @ @ % % % % $ $ % % % $ % % % % % % $ % % $ # $ @ $ @ @ @ # # # u T A D D D D D D A T D ",
"S M S F D D D D D D T e # # # # @ @ @ @ @ @ @ @ @ @ @ @ @ @ @ @ @ @ @ @ @ @ @ @ @ @ @ @ @ @ @ # @ @ $ 2 b V B B B B F M S S V F ",
"F S S S D D D D D D D c q $ $ # @ @ @ @ @ @ @ @ @ @ @ @ @ @ @ @ @ @ @ @ @ @ @ @ @ @ @ @ @ @ @ + @ $ 1 v ! m B B B B V S F S S M ",
"M F V F D D T D T D D D v 7 # + @ @ @ @ @ @ @ @ @ @ @ @ @ @ @ @ @ @ @ @ @ @ @ @ @ @ @ @ @ @ # #   1 x D D S S m B S S S M F F S ",
"S F S M D D D D A A A D D c 7 o . @ @ @ @ @ @ @ @ @ @ @ @ @ @ @ @ @ @ @ @ @ @ @ @ @ @ @ @ @   o 2 c D D F F S S B S S S S V S T ",
"S F F E V V D D S S M F D D P e & . @ @ @ @ @ @ @ @ @ @ @ @ @ @ @ @ @ @ @ @ @ @ @ @ @ @ +   $ q c D D D D D S S D D T D F D ! B ",
"S T V S V V F F V F S V D D m P d ; . @ @ @ @ $ @ @ @ @ @ @ @ @ @ @ @ @ @ @ @ @ @ @ @ @   - u n D D D D D D B S D D A D F m V B ",
"M S S D V B S S F M S S F S S S D x w &   @ . @ @ @ @ @ @ @ @ @ @ + + @ @ @ @ @ + o   % 7 z T D D D D D ! V B B T A D D B B V V ",
"S F V T B B S S F S F S S S F m F F m h 2 & o . @ @ @ @ @ @ @ @ @ + @ @ @ @ @   o % 2 f n D A D m F D D M V B B D D A D B B B B ",
"A A T D D T D D S S D D D D T D F M S S M j t < % o o   o . . . + @ . @   . % - q j n T D D D D D D D D A T D A D T D D T D D T ",
"A A A D D D D D V T D D D D D D V S F S F F m c j y 3 < : & $ & % & : ; 2 t f c T D A D D D D D D A T A D D D T D A D A A D S A ",
"D n A D D D D D F D D D D D D D F S V S m S S S S S m m c j k j j x x v b ! F F A D T D D D D D D D D T D D D D D A D T T D S D ",
"B B A D S T D D M F D D D D T D S M F S S F F M F S S F F F S S D F D F V D D D D D S D D D D D D D D D A T D A D T D D D D D D ",
"S D D D D T S D D T A T T D T D S M F S F S S F S S F S F M S M D D D D V B B B D D D D D D T D D D D D T A D T D D D D D D D D ",
"D D D D D D D D D D B A D D D A S M V S S S M S m F F M V S F M D D D D B B V V S T T A D D A D D D D D D D D D D D D D D D D D ",
"D T D T D T D T D T D A D D D A S M M S M m S m S S m S S S m D D P D D B B B B D D D A T A D D D D T A D D T D D T D D D D D D ",
"D D D D S T D D D S A T D A T D S F S F S S M F S M F S S S S D D S D F S B B B D D D T D D D D D D D D D D A D D A D D D D D D "
};
