/* XPM */
static char *ce21a84def884e72e7a47de9da0d36a2fza6w8l8eqSr6y8z[] = {
/* columns rows colors chars-per-pixel */
"64 64 88 1 ",
"  c #3C7F4E",
". c #3F7F51",
"X c #3D824F",
"o c #3E8450",
"O c #428254",
"+ c #468458",
"@ c #4A865B",
"# c #468859",
"$ c #4C895E",
"% c #4F8C61",
"& c #548C64",
"* c #5B8F6A",
"= c #559166",
"- c #5C936C",
"; c #5E9870",
": c #60916F",
"> c #639472",
", c #689676",
"< c #639A74",
"1 c #6A9877",
"2 c #6A9779",
"3 c #6C9A7A",
"4 c #719B7E",
"5 c #6CA27D",
"6 c #759E82",
"7 c #799F86",
"8 c #74A383",
"9 c #7AA186",
"0 c #74A987",
"q c #7EA48A",
"w c #7DAC8E",
"e c #7EB292",
"r c #83A68D",
"t c #80AD8E",
"y c #86A790",
"u c #86A890",
"i c #8BAA94",
"p c #8EAB98",
"a c #90AD97",
"s c #92AE9A",
"d c #84B495",
"f c #88B497",
"g c #8BB699",
"h c #8EBA9E",
"j c #96B19E",
"k c #98B19F",
"l c #9CB3A2",
"z c #95BEA5",
"x c #A2B6A6",
"c c #A4B6A9",
"v c #A5B9AA",
"b c #ABBAAD",
"n c #AEBCB0",
"m c #B5BEB5",
"M c #B9BFB7",
"N c #B7BFB8",
"B c #BBBFB9",
"V c #C1BEBC",
"C c #96C3A6",
"Z c #A3C4AD",
"A c #A3C7B0",
"S c #A7CCB4",
"D c #AACFB7",
"F c #ACCFB8",
"G c #B5C0B6",
"H c #B9C0B7",
"J c #BDC0BB",
"K c #ADD0BA",
"L c #B1D2BD",
"P c #C1C0BD",
"I c #B6D6C2",
"U c #BAD9C6",
"Y c #BEDAC9",
"T c #C3DDCD",
"R c #C7E1D2",
"E c #CDE4D6",
"W c #CEE4D8",
"Q c #D3E7DB",
"! c #D5E9DC",
"~ c #D9E9DE",
"^ c #D7EEE1",
"/ c #DDEEE3",
"( c #E3F2EA",
") c #EBF5EE",
"_ c #EEF9F3",
"` c #F2FBF6",
"' c #F6FDF9",
"] c #FEFFFE",
/* pixels */
"VVVVVVVVVVVVVVVVVVVVVVVVVVVVVVVVVVVVVVVVVVVVVVVVVVVVVVVVVVVVVVVV",
"VVVVVVVVVVVVVVVVVVVVVVVVVVVVVVVVVVVVVVVVVVVPVVVVVVVVVVVVVVVVVVVV",
"VVVVVVVVVVVVVVVVVVVVVVVVVVVVVVVVVVVVVVVVVVVVVVVVVVVVVVVVVVVVVVVV",
"VVVVVVVVVVVVVVVVVVVBVVVVVVVVVVVVVVVVVVVVVVVVVVVVVVVVVVVVVVVVVVVV",
"VVVVVVVVVVVVVVVVVVVVBVVVVVVVVVVVVVVPVVVVVVVVVVVVVVVVVVVVVVVVVVVV",
"VVVVVVVVVVVVVVVVVVVVVVVVVVVVBBMMmMVPVVVVPPVVVVVVVVVVVVVVVVVVVVVV",
"VVVVVVVVVVVVVVVVVVVVVVVJNcsr4>--::,4ykbHPPVVVVVVVVVVVVVVVVVVVVVV",
"VVVVVVVVVVVVVVVVVVVVVBcu>&+..XXXXX  O+&1ixVVVVVPVVVVVVVVVVVVVVVV",
"VVVVVVVVVVVVVVVVVVVNk3%.ooooooooOXXOoooXO%5vPPPPVVVVVVVVVVVVVVVV",
"VVVVVVVVVVVVVVVVVJx6@.XoooooooooXXoXooooXXO%9bPPVVVVVVVVVVVVVVVV",
"VVVVVVVVVVVVVVVVmw%oooooooooooooooooooooXOOOX=aPVVVVVVVVVVVVVVVV",
"VVVVVVVVVVVVVVVm3oXoooooooooooooooooooooXXXXoX#5JVVVVVVVVVVVVVVV",
"VVVVVVVVVVVVVVx*ooooooooooooooooooooooooooooXoXO6bVVVVVVVVVVVVVV",
"VVVVVVVVVVVVVx& oooooooooooooooooooooooooooooooo.:vVVVVVVVVVVVVV",
"VVVVVVVVVVPPx&.OoooooooooooooooooooooooooXoXoooo. ;nVVVVVVVVVVVV",
"VVVVVVVVVVPb*XOXoooooooooooooooooooooooooXXXXoooo..6VVVVVVVVVVVV",
"VVVVVVVVVVN3.Oooooooooooooooooooooooooooo->;#ooooo .7BVVVVVVVVVV",
"VVVVVVVVVBuOooooooooooooooXX XoooooooooX%Y(^0Xoooooo%jVVVVVVVVVV",
"VVVVVVVVBc%ooooooooooooooo8df8oooooooooX%W]`e oooooo.;mVVVVVVVVV",
"VVVVVVVVN6.oooooooooooooooI''DoooooooooX%W]`w.ooooooo.yBVVVVVVVV",
"VVVVVVVVl@ooooooooooooooooI]]KoooooooooX%W]`w oooooooo*nVVVVVVVV",
"VVVVVVVB6oooooooooooooooo+I]]F+ooooooooo%W]`w oooooooo.wVVBVVVVV",
"VVVVVVVv%oooooooooooooooX+I]]KOoooooooXX&W]`w.ooooooooo:mBVVVVVV",
"VVVVVVVyooooooooooooooooo+I]]KOoooooooOX$W]`w ooooooooo+lVVVVVVV",
"VVVVVBB,.oooooooooooooooo#U]]L+ooooooooX&E]`w ooooooooX.7VVVVVVV",
"VVVVVBn%.oooooooooooooooo#T]]Y#ooooXXXXX$E]`w ooooooooo :NVVVVVV",
"VVVVVVj+ooooooooooooooooX&Q]]R%.oo#%%%%#>Q]`w oooooooooo%cVVVVVV",
"VVVVVJyoooooooooooooooooX<(]]/=ooXeEWWEEQ`]`w.oooooooooo+jVVVVVV",
"VVVVVB6oooooooooooooooooXw`]]_9.ooC]]]]]]]]`wooooooooooo.yVVVVVV",
"VVVVBB2.oooooooooooooooooA]]]'z.oXeW!!!!~`]`wXoooooooooo.rVVVVBV",
"VVVVVm>ooooooooooooooooo&W]]]]R%Xo#===&&<Q]`wXooooooooo..7VBVBVV",
"VVVVVm:.ooooooooooooooooe_]))]_q oXXXXXX%E]_w ooooooooo..6BVVVVV",
"VVVVVG:XooooooooooooXOO$T]'ZZ']P$XoooooX%W]`wXooooooooooX8JVVVBV",
"VVVVPP>XooooooooXoooXXOg_]!-*!]`hoXooooX%W]`w ooooooooooo9JVVVVV",
"VVVVVP1OooooooooooXoXX4/])gOXf_'/8.XoooX%E]`w ooooooooooXrVVVVVV",
"VVVVVP9XooooooooooXOX:E''L$XX@K`]Q8.XoXX&E]`w ooooooooooOpPVVVVV",
"VVVVPPyOooooooooooXX1R]]R-XXoo;R']^d+XXX$W]`wXoooooooooX@kVVVVVV",
"VVVVPPkOoooooooooXOt~''Q3OXOooo<E]])D<XX&E]`wXoooooooooX&bVVVVVV",
"VVVVPPb=XoooooooO=S)']E5XXXooooo<T']`COX%E]`wXoooooOoooX,HVVVVVV",
"VVVVPPP1XoooooooX-R'`T5XOoooooooX=A(E-XX&E]_wXoooooXoooorPVVVVVV",
"VVVVVVVyOOXXooooOX5RA=XOooooooooOXO55XXX%E]`w XXooooooX@xVVVVVVV",
"VVVVVVPb&XXOoooooXO%#XXXooooooooXXXXXoXX%E]`wXXXooooooX,MVVVVVVV",
"VVmVVVPPqOOXoooooooXoooooooooooooXOXoooX%W]`wXoXooooooOsVVBVVVVV",
"VVVVVVVPv$XXooooXooooooooooooooooooXoooX%E]`eXoooooooo:mVVVVVVVV",
"MVVVVVVVPqOOoooooooooooooooooooooooooooX%W]`wXooooooX+sVVVVVVVVV",
"VVVVVVVVPZ*Xoooooooooooooooooooooooooooo%E]_w oooooo 4MVVVVVVVVV",
"VVVVVVVVPPk$ooooooooooooooooooooooOooooo#ezh-Xooooo &xVVVVVVVVVV",
"MVVVVVVVPPP5OoooooooooooooooooooooooooooOXXXXXoooo +aVVVVVVVVVVV",
"VVVVVVVVVVVM1XXXXoooooooooooooooooooooooooooXXXXo.OqJVVVVVVVVVVV",
"VVVVVVVVVVVPb1XXoOooooooooooooooooooooooooooXOXOoO6mVVVVVVVVVVVV",
"VVVVVVVVVVVVVb1XXXoXooooooooooooooooooooooooOXOX+6mVVVVVVVVVVVVV",
"VVVVVVVVVVVVVVm4OXoOooooooooooooooooooooooooooO+rMVVVVVVVVVVVVVV",
"VVVVVVVVVVVVVVVMr@OXooXXoooooooooooooXXoooooOO%aMVVVVVVVVMVVVPVV",
"VVVVVVVVVVVVVVVVPk:OXooOooooooooooooOXoooooX+1xPVVVVVVVVVVVVVVVV",
"VVVVVVVVVVVVVVVVVVGu=OOXooooooooooooXXXOOOO:aHVVVVVVVVVVVVVVVVVV",
"VVVVVVVVVVVVVVVVVVPPni:@oXXoooooooooXXXO#<aGPVVVVVVVVVVVVVVVVVVV",
"VVVVVVVVVVVVVVVVVVVVVPMkr:%+OOXOooOO+&1rbBVVVVVVVPVVVVVVVVVVVVVV",
"VVVVVVPVVVVVVVVVVVVVVVVPPmbkyr4455taxbPPPVVVVVVVVVVVVVVVVVVVVVVV",
"VVVVVVVVVVPVVVVVVVVVVVVVVVPHPPPPPPPPPVPVVVVVVVVVVVVVVVVVVVVVVVVV",
"VVVVVVVVVVVVVVVVVVPVVVPVVVVVVPVVPPPPVPVVVVVVVVVVVVVVVVVVVVVVVVVV",
"VVVVVVVVVVVVVVVVVVVVVVVVVVVVVVVVVVVVVVVVVVVVVVVVVVVVVVVPVVVVVVVV",
"VPVVVVVVVVVVVPVVVVVVVVPVVVVVVVVVVVVVVVVVVVVPVVVPVVVVVVVVVVVVVVVV",
"VVVVVVVVVPVVVVVVVVVVVPVVVVVVPVVVVVVVVVVVVVVVVVVVVVVVVVVVVVVVVVVV",
"VVVVVVVVVVVVVVVVVVVVVVVVVVVVVVVVVVVVVPVVVVVVVVVVVVVVVVVVVVVVVVVV"
};
